<svg width="133" height="16" viewBox="0 0 133 16" fill="none" xmlns="http://www.w3.org/2000/svg">
<path d="M122.6 12.7728V3.48522H117.081V0.000244141H133V3.48522H127.482V12.7728H122.6Z" fill="#723CEA"/>
<path d="M115.828 0.000244141V12.7728H110.963V0.000244141H115.828Z" fill="#723CEA"/>
<path d="M97.839 13.0296H96.8076C90.8767 13.0296 90 10.1799 90 8.25711V7.94809C90 6.04251 90.8595 3.27856 96.7904 3.27856H97.8562C104.028 3.27856 104.664 6.12835 104.664 7.39874V7.45024H99.8847C99.8331 7.10689 99.5237 5.85367 97.3233 5.85367H97.2545C95.2604 5.85367 94.7447 6.95239 94.7447 7.9996V8.08543C94.7447 9.20131 95.2948 10.4202 97.2545 10.4202H97.3233C99.5065 10.4202 99.8331 9.11548 99.8847 8.75496H104.664V8.7893C104.664 10.0425 104.165 13.0296 97.839 13.0296Z" fill="white"/>
<path d="M88.9933 0.000244141V2.76419H84.3174V0.000244141H88.9933ZM88.9933 3.53673V12.7728H84.3174V3.53673H88.9933Z" fill="white"/>
<path d="M65.2384 12.7724H60.5625V3.53633H65.204V5.1844C65.6166 4.77238 66.9919 3.33032 69.794 3.33032H69.8971C72.046 3.33032 73.1634 4.24019 73.7135 5.2359C74.4527 4.54921 75.9827 3.33032 78.5613 3.33032H78.6816C81.9822 3.33032 82.9621 5.39041 82.9621 6.83247V12.7724H78.2862V8.3432C78.2862 7.15865 77.7877 6.23161 76.378 6.23161C74.9168 6.23161 74.1089 7.21015 74.1089 8.46337V12.7724H69.4158V8.3432C69.4158 7.15865 68.9172 6.23161 67.5076 6.23161C66.0464 6.23161 65.2384 7.21015 65.2384 8.46337V12.7724Z" fill="white"/>
<path d="M54.293 8.80785V8.413L51.1987 8.96236C50.3907 9.0997 50.0641 9.28854 50.0641 9.75206V9.76922C50.0641 10.1984 50.3735 10.7134 51.5253 10.7134C53.2444 10.7134 54.293 9.76922 54.293 8.80785ZM54.379 11.5375C53.932 11.9838 52.7458 12.9452 50.0469 12.9452H49.8578C46.7634 12.9452 45.5773 11.486 45.5773 9.97523V9.76922C45.5773 8.22416 46.5743 7.31429 49.3249 7.09111L53.7773 6.69626C54.1727 6.64476 54.293 6.50742 54.293 6.24991C54.293 5.90656 54.1039 5.54605 52.2817 5.54605H52.2129C50.236 5.54605 50.1844 6.19841 50.1328 6.49025H45.8008V6.38725C45.8008 5.1512 46.1789 3.29712 51.7316 3.29712H52.6943C58.4704 3.29712 58.8658 5.01386 58.8658 6.26708V9.68339C58.8658 9.9409 58.9345 10.0782 59.2612 10.0782H59.7597V12.7735H55.8746C55.0666 12.7735 54.5165 12.3443 54.379 11.5375Z" fill="white"/>
<path d="M30.5962 12.7724V3.53633H35.2377V5.16723C35.7019 4.73805 37.1287 3.33032 40.0168 3.33032H40.1199C43.5753 3.33032 44.6583 5.37324 44.6583 6.83247V12.7724H39.9652V8.36037C39.9652 7.12431 39.3291 6.23161 37.7304 6.23161C36.1488 6.23161 35.2721 7.17582 35.2721 8.48054V12.7724H30.5962Z" fill="white"/>
<path d="M17.7348 15.9999V13.1501H19.8321C20.1759 13.1501 20.2619 13.0128 20.2619 12.8583V12.8411C20.2619 12.6523 20.1243 12.3947 19.8665 11.9141L15.5 3.53638H20.4853L23.064 9.47629L25.4535 3.53638H30.095L25.6426 13.1673C24.7487 15.1072 23.7516 15.9999 22.0841 15.9999H17.7348Z" fill="white"/>
<path d="M10.3317 8.15475V8.06891C10.3317 7.03887 9.38618 5.94016 7.42643 5.94016H7.34048C5.31196 5.94016 4.74466 7.03887 4.74466 8.06891V8.15475C4.74466 9.16763 5.4323 10.335 7.35767 10.335H7.42643C9.42056 10.335 10.3317 9.18479 10.3317 8.15475ZM10.3317 0.000244141H15.0076V12.7728H10.3489V11.4337C10.0394 11.7771 8.7845 12.9445 5.89645 12.9445H5.6042C1.56436 12.9445 0 10.7299 0 8.27492V7.91441C0 5.56248 1.44403 3.36505 5.46668 3.36505H5.7933C8.64698 3.36505 9.90191 4.37793 10.3317 4.70411V0.000244141Z" fill="white"/>
</svg>
