<svg width="162" height="97" viewBox="0 0 162 97" fill="none" xmlns="http://www.w3.org/2000/svg">
<path d="M24.7235 55.1164L1 1H7.17034L29.4042 51.8954H26.0001L48.3403 1H54.0851L30.3618 55.1164H24.7235Z" fill="white" stroke="white" stroke-width="0.809146" stroke-miterlimit="10" stroke-linejoin="round"/>
<path d="M61.8488 1.00391V55.1179H67.5905V38.0457H67.8906C67.9122 37.8017 67.9464 37.5155 67.9762 37.2349C67.9412 37.0126 67.9184 36.8664 67.8155 36.37C67.7882 36.2378 67.7793 36.163 67.7619 36.0781C67.5245 34.9128 67.4142 34.1458 67.4298 33.2561C67.4323 33.1204 67.4848 33.0005 67.4943 32.8668V5.83688H67.6657C67.5345 4.31259 67.4955 2.69492 67.5476 1.00391H61.8488Z" fill="white"/>
<path d="M116.105 55.1164V1H120.788L157.808 48.03H155.362V1H161V55.1164H156.32L119.404 8.08674H121.852V55.1164H116.105Z" fill="white" stroke="white" stroke-width="0.809146" stroke-miterlimit="10" stroke-linejoin="round"/>
<path d="M20.7579 89.7897C18.6901 89.7897 16.9041 89.3153 15.3061 88.4614C13.7083 87.6076 12.5803 86.3742 11.6403 84.8564C10.7945 83.3383 10.3245 81.5359 10.3245 79.6384C10.3245 77.7411 10.7005 75.9384 11.5463 74.4207C12.3923 72.9026 13.5203 71.6692 15.0243 70.8153C16.5281 69.9617 18.1261 69.4873 20.0059 69.4873C21.8859 69.4873 23.4837 69.8668 24.9877 70.7207C26.3977 71.5743 27.5255 72.7129 28.3715 74.3258C29.2175 75.9384 29.5935 77.6462 29.5935 79.6384C29.5935 79.7333 29.5935 79.923 29.5935 80.0179C29.5935 80.1128 29.5935 80.3025 29.5935 80.4923H12.3923V78.5001H28.1835L27.1495 79.2589C27.1495 77.836 26.8675 76.5077 26.2097 75.3692C25.5517 74.2309 24.7997 73.377 23.6717 72.7129C22.6379 72.0487 21.4159 71.7641 20.0059 71.7641C18.6901 71.7641 17.4681 72.0487 16.3401 72.7129C15.3061 73.377 14.4603 74.2309 13.8023 75.3692C13.2383 76.5077 12.8623 77.836 12.8623 79.2589V79.6384C12.8623 81.1564 13.2383 82.4844 13.8963 83.623C14.5543 84.7615 15.4941 85.7103 16.7161 86.2795C17.9381 86.9434 19.2539 87.228 20.7579 87.228C21.9799 87.228 23.1077 87.0383 24.1417 86.5639C25.1757 86.0898 26.1157 85.5205 26.8675 84.5717L28.3715 86.2795C27.5255 87.3229 26.3977 88.1768 25.0817 88.7461C23.7657 89.5051 22.3559 89.7897 20.7579 89.7897Z" fill="white"/>
<path d="M31.4732 89.6002L39.8388 78.6898V80.0181L31.9432 69.6772H34.951L41.4369 78.2157H40.3088L46.7944 69.6772H49.7082L41.7189 80.113V78.6898L50.1782 89.6002H47.1704L40.3088 80.4925L41.3428 80.6822L34.575 89.6002H31.4732Z" fill="white"/>
<path d="M54.5973 96.9997V69.6769H57.1353V75.6537L56.8533 79.6382L57.2293 83.6228V96.9049H54.5973V96.9997ZM64.7489 89.7896C63.0569 89.7896 61.4589 89.4101 60.1431 88.5562C58.8271 87.7023 57.699 86.5638 56.8533 85.1409C56.0073 83.6228 55.6313 81.8204 55.6313 79.6382C55.6313 77.4563 56.0073 75.6537 56.8533 74.1359C57.699 72.6178 58.7331 71.4793 60.1431 70.7206C61.5529 69.9615 63.0569 69.582 64.8429 69.582C66.7227 69.582 68.4147 69.9615 69.9184 70.8152C71.4225 71.6691 72.5505 72.8076 73.3962 74.4205C74.2423 76.0332 74.7122 77.7409 74.7122 79.7331C74.7122 81.7255 74.2423 83.528 73.3962 85.046C72.5505 86.5638 71.3285 87.7972 69.9184 88.6511C68.3207 89.4101 66.6287 89.7896 64.7489 89.7896ZM64.5609 87.4177C65.9706 87.4177 67.1927 87.133 68.3207 86.4689C69.4484 85.805 70.2944 84.9511 70.9525 83.7177C71.6105 82.5792 71.8925 81.1563 71.8925 79.6382C71.8925 78.1205 71.6105 76.6973 70.9525 75.5588C70.2944 74.4205 69.4484 73.4717 68.3207 72.8076C67.1927 72.1435 65.9706 71.8588 64.5609 71.8588C63.1509 71.8588 61.9288 72.1435 60.8011 72.8076C59.6731 73.4717 58.8271 74.4205 58.1691 75.5588C57.511 76.6973 57.2293 78.1205 57.2293 79.6382C57.2293 81.1563 57.511 82.5792 58.1691 83.7177C58.8271 84.8562 59.6731 85.805 60.8011 86.4689C61.9288 87.133 63.1509 87.4177 64.5609 87.4177Z" fill="white"/>
<path d="M80.0699 89.6001V61.4233H82.7017V89.6001H80.0699Z" fill="white"/>
<path d="M98.21 89.7899C96.2358 89.7899 94.5442 89.3155 93.0412 88.4616C91.5382 87.6077 90.3152 86.3743 89.4692 84.8565C88.6232 83.3385 88.1534 81.5361 88.1534 79.6385C88.1534 77.6464 88.6232 75.8437 89.4692 74.3259C90.3152 72.8079 91.5382 71.5745 93.0412 70.7209C94.5442 69.867 96.2358 69.3926 98.21 69.3926C100.184 69.3926 101.876 69.867 103.381 70.7209C104.884 71.5745 106.107 72.8079 106.953 74.3259C107.799 75.8437 108.267 77.5515 108.267 79.5437C108.267 81.5361 107.799 83.2436 106.953 84.7616C106.107 86.2797 104.884 87.5128 103.381 88.3667C101.876 89.4104 100.184 89.7899 98.21 89.7899ZM98.21 87.418C99.6213 87.418 100.936 87.1333 101.97 86.4692C103.099 85.8053 103.944 84.9514 104.602 83.718C105.261 82.4846 105.542 81.1566 105.542 79.6385C105.542 78.0259 105.261 76.6976 104.602 75.5591C103.944 74.4208 103.099 73.472 101.97 72.8079C100.842 72.1438 99.6213 71.8591 98.21 71.8591C96.8013 71.8591 95.5785 72.1438 94.45 72.8079C93.324 73.472 92.4782 74.3259 91.8185 75.5591C91.1612 76.7925 90.8792 78.1208 90.8792 79.6385C90.8792 81.1566 91.1612 82.5795 91.8185 83.718C92.4782 84.8565 93.324 85.8053 94.45 86.4692C95.5785 87.1333 96.8013 87.418 98.21 87.418Z" fill="white"/>
<path d="M113.719 89.6001V69.6772H116.258V75.0847L115.976 74.1362C116.539 72.6181 117.479 71.4796 118.796 70.626C120.11 69.7721 121.71 69.3926 123.684 69.3926V72.0489C123.59 72.0489 123.496 72.0489 123.401 72.0489C123.307 72.0489 123.213 72.0489 123.119 72.0489C121.05 72.0489 119.453 72.713 118.23 73.9464C117.01 75.1796 116.444 77.0771 116.444 79.3539V89.5053H113.719V89.6001Z" fill="white"/>
<path d="M136.747 89.7897C134.681 89.7897 132.893 89.3153 131.295 88.4614C129.698 87.6076 128.57 86.3742 127.63 84.8564C126.69 83.3383 126.315 81.5359 126.315 79.6384C126.315 77.7411 126.69 75.9384 127.535 74.4207C128.381 72.9026 129.51 71.6692 131.015 70.8153C132.518 69.9617 134.115 69.4873 135.995 69.4873C137.875 69.4873 139.473 69.8668 140.978 70.7207C142.481 71.5743 143.516 72.7129 144.361 74.3258C145.207 75.9384 145.584 77.6462 145.584 79.6384C145.584 79.7333 145.584 79.923 145.584 80.0179C145.584 80.1128 145.584 80.3025 145.584 80.4923H128.381V78.5001H144.173L143.139 79.2589C143.139 77.836 142.858 76.5077 142.199 75.3692C141.541 74.2309 140.79 73.377 139.661 72.7129C138.627 72.0487 137.407 71.7641 135.995 71.7641C134.681 71.7641 133.458 72.0487 132.33 72.7129C131.295 73.377 130.45 74.2309 129.792 75.3692C129.227 76.5077 128.852 77.836 128.852 79.2589V79.6384C128.852 81.1564 129.227 82.4844 129.887 83.623C130.544 84.7615 131.484 85.7103 132.707 86.2795C133.927 86.8485 135.244 87.228 136.747 87.228C137.97 87.228 139.098 87.0383 140.132 86.5639C141.164 86.0898 142.104 85.5205 142.858 84.5717L144.361 86.2795C143.516 87.3229 142.387 88.1768 141.072 88.7461C139.755 89.5051 138.347 89.7897 136.747 89.7897Z" fill="white"/>
<path d="M151.036 89.6001V69.6772H153.574V75.0847L153.291 74.1362C153.856 72.6181 154.796 71.4796 156.111 70.626C157.428 69.867 159.025 69.3926 160.999 69.3926V72.0489C160.905 72.0489 160.811 72.0489 160.717 72.0489C160.622 72.0489 160.528 72.0489 160.434 72.0489C158.368 72.0489 156.768 72.713 155.548 73.9464C154.325 75.1796 153.762 77.0771 153.762 79.3539V89.5053H151.036V89.6001Z" fill="white"/>
<path d="M91.9548 17.506C97.761 23.3651 100.69 31.0519 100.742 38.7384L108.252 38.6848H108.305C108.225 29.0898 104.549 19.4681 97.2799 12.1308C90.0115 4.79348 80.5318 1.08451 71.0255 1.00391L70.9191 8.63687C78.5347 8.6907 86.1505 11.6471 91.9548 17.506ZM86.6297 22.8814C82.2628 18.4735 76.591 16.2428 70.839 16.2428L70.786 23.8219C74.6204 23.8758 78.4015 25.3272 81.3042 28.2566C84.2065 31.1863 85.6446 35.0027 85.6977 38.8728L93.2073 38.819C93.2073 33.0138 90.9974 27.2891 86.6297 22.8814ZM75.9783 33.6321C74.5138 32.1538 72.6233 31.4281 70.7061 31.4281L70.6528 39.0073L78.1619 38.9535C78.1619 37.0184 77.4429 35.1101 75.9783 33.6321Z" fill="white"/>
<path d="M61.8488 1H67.9762V55.1164H61.8488V1Z" fill="white"/>
</svg>
