<svg width="981" height="627" viewBox="0 0 981 627" fill="none" xmlns="http://www.w3.org/2000/svg">
<mask id="mask0_87_2466" style="mask-type:alpha" maskUnits="userSpaceOnUse" x="0" y="0" width="981" height="627">
<line x1="0.5" y1="627" x2="0.499973" y2="2.18557e-08" stroke="white"/>
<line x1="70.5" y1="627" x2="70.5" y2="2.18557e-08" stroke="white"/>
<line x1="140.5" y1="627" x2="140.5" y2="2.18557e-08" stroke="white"/>
<line x1="210.5" y1="627" x2="210.5" y2="2.18557e-08" stroke="white"/>
<line x1="280.5" y1="627" x2="280.5" y2="2.18557e-08" stroke="white"/>
<line x1="350.5" y1="627" x2="350.5" y2="2.18557e-08" stroke="white"/>
<line x1="420.5" y1="627" x2="420.5" y2="2.18557e-08" stroke="white"/>
<line x1="490.5" y1="627" x2="490.5" y2="2.18557e-08" stroke="white"/>
<line x1="560.5" y1="627" x2="560.5" y2="2.18557e-08" stroke="white"/>
<line x1="630.5" y1="627" x2="630.5" y2="2.18557e-08" stroke="white"/>
<line x1="700.5" y1="627" x2="700.5" y2="2.18557e-08" stroke="white"/>
<line x1="770.5" y1="627" x2="770.5" y2="2.18557e-08" stroke="white"/>
<line x1="840.5" y1="627" x2="840.5" y2="2.18557e-08" stroke="white"/>
<line x1="910.5" y1="627" x2="910.5" y2="2.18557e-08" stroke="white"/>
<g opacity="0.3">
<line x1="981" y1="618.65" x2="1" y2="618.65" stroke="white"/>
<line x1="981" y1="550.95" x2="1" y2="550.95" stroke="white"/>
<line x1="981" y1="483.25" x2="1" y2="483.25" stroke="white"/>
<line x1="981" y1="415.55" x2="1" y2="415.55" stroke="white"/>
<line x1="981" y1="347.85" x2="1" y2="347.85" stroke="white"/>
<line x1="981" y1="280.15" x2="1" y2="280.15" stroke="white"/>
<line x1="981" y1="212.45" x2="1" y2="212.45" stroke="white"/>
<line x1="981" y1="144.75" x2="1" y2="144.75" stroke="white"/>
<line x1="981" y1="77.0498" x2="1" y2="77.0499" stroke="white"/>
<line x1="981" y1="9.34985" x2="1" y2="9.3499" stroke="white"/>
</g>
</mask>
<g mask="url(#mask0_87_2466)">
<g opacity="0.3" filter="url(#filter0_f_87_2466)">
<circle cx="432" cy="586" r="385" transform="rotate(-90 432 586)" fill="#723CEA"/>
</g>
</g>
<defs>
<filter id="filter0_f_87_2466" x="-153" y="1" width="1170" height="1170" filterUnits="userSpaceOnUse" color-interpolation-filters="sRGB">
<feFlood flood-opacity="0" result="BackgroundImageFix"/>
<feBlend mode="normal" in="SourceGraphic" in2="BackgroundImageFix" result="shape"/>
<feGaussianBlur stdDeviation="100" result="effect1_foregroundBlur_87_2466"/>
</filter>
</defs>
</svg>
