<svg width="82" height="49" viewBox="0 0 82 49" fill="none" xmlns="http://www.w3.org/2000/svg">
<path d="M12.8617 28.0582L1 1H4.08517L15.2021 26.4477H13.5L24.6702 1H27.5425L15.6809 28.0582H12.8617Z" fill="white" stroke="white" stroke-width="0.404573" stroke-miterlimit="10" stroke-linejoin="round"/>
<path d="M31.4244 1.00201V28.059H34.2952V19.5229H34.4453C34.4561 19.4009 34.4732 19.2578 34.4881 19.1175C34.4706 19.0064 34.4592 18.9333 34.4077 18.6851C34.3941 18.619 34.3896 18.5815 34.3809 18.5391C34.2623 17.9565 34.2071 17.5729 34.2149 17.1281C34.2161 17.0603 34.2424 17.0003 34.2471 16.9335V3.41849H34.3328C34.2672 2.65635 34.2478 1.84751 34.2738 1.00201H31.4244Z" fill="white"/>
<path d="M58.5526 28.0582V1H60.8939L79.4039 24.515H78.1812V1H81V28.0582H78.6599L60.2019 4.54337H61.4259V28.0582H58.5526Z" fill="white" stroke="white" stroke-width="0.404573" stroke-miterlimit="10" stroke-linejoin="round"/>
<path d="M10.8789 45.3949C9.84506 45.3949 8.95205 45.1577 8.15304 44.7308C7.35415 44.3039 6.79015 43.6872 6.32014 42.9283C5.89726 42.1692 5.66226 41.268 5.66226 40.3193C5.66226 39.3706 5.85026 38.4693 6.27314 37.7104C6.69615 36.9514 7.26015 36.3347 8.01216 35.9077C8.76405 35.4809 9.56306 35.2437 10.5029 35.2437C11.443 35.2437 12.2418 35.4335 12.9938 35.8604C13.6989 36.2873 14.2627 36.8565 14.6857 37.663C15.1087 38.4693 15.2968 39.3232 15.2968 40.3193C15.2968 40.3667 15.2968 40.4616 15.2968 40.509C15.2968 40.5565 15.2968 40.6513 15.2968 40.7462H6.69615V39.7501H14.5917L14.0747 40.1295C14.0747 39.4181 13.9337 38.7539 13.6049 38.1847C13.2759 37.6155 12.8998 37.1886 12.3358 36.8565C11.819 36.5244 11.208 36.3821 10.5029 36.3821C9.84506 36.3821 9.23405 36.5244 8.67004 36.8565C8.15304 37.1886 7.73016 37.6155 7.40115 38.1847C7.11915 38.7539 6.93115 39.4181 6.93115 40.1295V40.3193C6.93115 41.0783 7.11915 41.7423 7.44816 42.3116C7.77716 42.8808 8.24704 43.3552 8.85805 43.6398C9.46905 43.9718 10.1269 44.1141 10.8789 44.1141C11.49 44.1141 12.0538 44.0192 12.5708 43.782C13.0878 43.545 13.5579 43.2603 13.9337 42.7859L14.6857 43.6398C14.2627 44.1615 13.6989 44.5885 13.0408 44.8731C12.3828 45.2526 11.678 45.3949 10.8789 45.3949Z" fill="white"/>
<path d="M16.2366 45.3001L20.4194 39.8449V40.509L16.4716 35.3386H17.9755L21.2184 39.6078H20.6544L23.8972 35.3386H25.3541L21.3594 40.5565V39.8449L25.5891 45.3001H24.0852L20.6544 40.7462L21.1714 40.8411L17.7875 45.3001H16.2366Z" fill="white"/>
<path d="M27.7986 49V35.3386H29.0676V38.327L28.9266 40.3193L29.1146 42.3116V48.9526H27.7986V49ZM32.8744 45.3949C32.0284 45.3949 31.2294 45.2052 30.5715 44.7782C29.9135 44.3513 29.3495 43.782 28.9266 43.0706C28.5036 42.3116 28.3156 41.4104 28.3156 40.3193C28.3156 39.2283 28.5036 38.327 28.9266 37.5681C29.3495 36.8091 29.8665 36.2398 30.5715 35.8604C31.2764 35.4809 32.0284 35.2912 32.9214 35.2912C33.8613 35.2912 34.7073 35.4809 35.4592 35.9077C36.2112 36.3347 36.7752 36.9039 37.1981 37.7104C37.6211 38.5167 37.8561 39.3706 37.8561 40.3667C37.8561 41.3629 37.6211 42.2641 37.1981 43.0231C36.7752 43.782 36.1642 44.3987 35.4592 44.8257C34.6603 45.2052 33.8143 45.3949 32.8744 45.3949ZM32.7804 44.209C33.4853 44.209 34.0963 44.0667 34.6603 43.7346C35.2242 43.4026 35.6472 42.9757 35.9762 42.359C36.3052 41.7897 36.4462 41.0783 36.4462 40.3193C36.4462 39.5604 36.3052 38.8488 35.9762 38.2795C35.6472 37.7104 35.2242 37.236 34.6603 36.9039C34.0963 36.5719 33.4853 36.4296 32.7804 36.4296C32.0754 36.4296 31.4644 36.5719 30.9005 36.9039C30.3365 37.236 29.9135 37.7104 29.5845 38.2795C29.2555 38.8488 29.1146 39.5604 29.1146 40.3193C29.1146 41.0783 29.2555 41.7897 29.5845 42.359C29.9135 42.9283 30.3365 43.4026 30.9005 43.7346C31.4644 44.0667 32.0754 44.209 32.7804 44.209Z" fill="white"/>
<path d="M40.5349 45.3001V31.2117H41.8508V45.3001H40.5349Z" fill="white"/>
<path d="M49.605 45.3949C48.6179 45.3949 47.7721 45.1578 47.0206 44.7308C46.2691 44.3039 45.6576 43.6872 45.2346 42.9283C44.8116 42.1692 44.5767 41.268 44.5767 40.3193C44.5767 39.3232 44.8116 38.4219 45.2346 37.663C45.6576 36.904 46.2691 36.2873 47.0206 35.8604C47.7721 35.4335 48.6179 35.1963 49.605 35.1963C50.5922 35.1963 51.4379 35.4335 52.1907 35.8604C52.9422 36.2873 53.5536 36.904 53.9764 37.663C54.3993 38.4219 54.6337 39.2757 54.6337 40.2718C54.6337 41.268 54.3993 42.1218 53.9764 42.8808C53.5536 43.6398 52.9422 44.2564 52.1907 44.6834C51.4379 45.2052 50.5922 45.3949 49.605 45.3949ZM49.605 44.209C50.3106 44.209 50.9679 44.0667 51.485 43.7346C52.0493 43.4027 52.4722 42.9757 52.8008 42.359C53.1307 41.7423 53.2708 41.0783 53.2708 40.3193C53.2708 39.5129 53.1307 38.8488 52.8008 38.2795C52.4722 37.7104 52.0493 37.236 51.485 36.904C50.9208 36.5719 50.3106 36.4296 49.605 36.4296C48.9006 36.4296 48.2892 36.5719 47.725 36.904C47.162 37.236 46.7391 37.663 46.4092 38.2795C46.0806 38.8962 45.9396 39.5604 45.9396 40.3193C45.9396 41.0783 46.0806 41.7897 46.4092 42.359C46.7391 42.9283 47.162 43.4027 47.725 43.7346C48.2892 44.0667 48.9006 44.209 49.605 44.209Z" fill="white"/>
<path d="M57.3593 45.3001V35.3386H58.6292V38.0423L58.4878 37.5681C58.7693 36.8091 59.2393 36.2398 59.8978 35.813C60.5551 35.386 61.355 35.1963 62.3421 35.1963V36.5244C62.295 36.5244 62.2478 36.5244 62.2007 36.5244C62.1536 36.5244 62.1065 36.5244 62.0593 36.5244C61.0251 36.5244 60.2264 36.8565 59.6151 37.4732C59.0049 38.0898 58.7222 39.0386 58.7222 40.177V45.2526H57.3593V45.3001Z" fill="white"/>
<path d="M68.8735 45.3949C67.8405 45.3949 66.9463 45.1577 66.1477 44.7308C65.3491 44.3039 64.7848 43.6872 64.3148 42.9283C63.8448 42.1692 63.6575 41.268 63.6575 40.3193C63.6575 39.3706 63.8448 38.4693 64.2677 37.7104C64.6906 36.9514 65.2548 36.3347 66.0076 35.9077C66.7591 35.4809 67.5577 35.2437 68.4977 35.2437C69.4377 35.2437 70.2364 35.4335 70.9891 35.8604C71.7406 36.2873 72.2578 36.8565 72.6806 37.663C73.1035 38.4693 73.292 39.3232 73.292 40.3193C73.292 40.3667 73.292 40.4616 73.292 40.509C73.292 40.5565 73.292 40.6513 73.292 40.7462H64.6906V39.7501H72.5864L72.0693 40.1295C72.0693 39.4181 71.9291 38.7539 71.5993 38.1847C71.2706 37.6155 70.8949 37.1886 70.3306 36.8565C69.8135 36.5244 69.2034 36.3821 68.4977 36.3821C67.8405 36.3821 67.2291 36.5244 66.6648 36.8565C66.1477 37.1886 65.7248 37.6155 65.3962 38.1847C65.1134 38.7539 64.9262 39.4181 64.9262 40.1295V40.3193C64.9262 41.0783 65.1134 41.7423 65.4433 42.3116C65.7719 42.8808 66.2419 43.3552 66.8533 43.6398C67.4635 43.9243 68.122 44.1141 68.8735 44.1141C69.4849 44.1141 70.0491 44.0192 70.5662 43.782C71.0821 43.545 71.5521 43.2603 71.9291 42.7859L72.6806 43.6398C72.2578 44.1615 71.6935 44.5885 71.0362 44.8731C70.3777 45.2526 69.6734 45.3949 68.8735 45.3949Z" fill="white"/>
<path d="M76.0182 45.3001V35.3386H77.2868V38.0423L77.1454 37.5681C77.4282 36.8091 77.8982 36.2398 78.5554 35.813C79.2139 35.4335 80.0126 35.1963 80.9997 35.1963V36.5244C80.9526 36.5244 80.9055 36.5244 80.8583 36.5244C80.8112 36.5244 80.7641 36.5244 80.717 36.5244C79.684 36.5244 78.8841 36.8565 78.2739 37.4732C77.6625 38.0898 77.381 39.0386 77.381 40.177V45.2526H76.0182V45.3001Z" fill="white"/>
<path d="M46.4774 9.25305C49.3805 12.1826 50.8451 16.026 50.8711 19.8693L54.6262 19.8425H54.6523C54.6126 15.0449 52.7747 10.2341 49.1399 6.56545C45.5058 2.89679 40.7659 1.04231 36.0128 1.00201L35.9596 4.81849C39.7674 4.8454 43.5753 6.32363 46.4774 9.25305ZM43.8149 11.9408C41.6314 9.73682 38.7955 8.62146 35.9195 8.62146L35.893 12.411C37.8102 12.4379 39.7008 13.1637 41.1521 14.6284C42.6033 16.0932 43.3223 18.0014 43.3488 19.9365L47.1037 19.9096C47.1037 17.0069 45.9987 14.1446 43.8149 11.9408ZM38.4892 17.3161C37.7569 16.577 36.8117 16.2141 35.853 16.2141L35.8264 20.0037L39.581 19.9768C39.581 19.0092 39.2215 18.0551 38.4892 17.3161Z" fill="white"/>
<path d="M31.4244 1H34.4881V28.0582H31.4244V1Z" fill="white"/>
</svg>
